<svg xmlns="http://www.w3.org/2000/svg" xmlns:xlink="http://www.w3.org/1999/xlink" viewBox="0 0 263 200"><defs><style>.cls-1{fill:url(#linear-gradient);}.cls-2{fill:#bdd0fb;}.cls-15,.cls-16,.cls-3,.cls-36{fill:#fff;}.cls-3{opacity:0.43;}.cls-4{fill:#91b3fa;}.cls-5{opacity:0.3;}.cls-6{fill:url(#linear-gradient-2);}.cls-7{fill:url(#linear-gradient-3);}.cls-8{fill:url(#linear-gradient-4);}.cls-9{fill:url(#linear-gradient-5);}.cls-10{fill:url(#linear-gradient-6);}.cls-11{fill:url(#linear-gradient-7);}.cls-12{fill:url(#linear-gradient-8);}.cls-13{fill:url(#linear-gradient-9);}.cls-14{fill:#f93;}.cls-15{opacity:0.65;}.cls-16{opacity:0.69;}.cls-17{fill:url(#linear-gradient-10);}.cls-18{fill:url(#linear-gradient-11);}.cls-19{fill:url(#linear-gradient-12);}.cls-20{fill:#f79e6d;}.cls-21{fill:url(#linear-gradient-13);}.cls-22{fill:url(#linear-gradient-14);}.cls-23{fill:url(#linear-gradient-15);}.cls-24{fill:url(#linear-gradient-16);}.cls-25{fill:url(#linear-gradient-17);}.cls-26{fill:url(#linear-gradient-18);}.cls-27{fill:url(#linear-gradient-19);}.cls-28{fill:url(#linear-gradient-20);}.cls-29{fill:url(#linear-gradient-21);}.cls-30{fill:url(#linear-gradient-22);}.cls-31{fill:url(#linear-gradient-23);}.cls-32{fill:url(#linear-gradient-24);}.cls-33{fill:url(#linear-gradient-25);}.cls-34{fill:url(#linear-gradient-26);}.cls-35{fill:url(#linear-gradient-27);}.cls-36{opacity:0.71;}.cls-37{fill:url(#linear-gradient-28);}.cls-38{fill:url(#linear-gradient-29);}</style><linearGradient id="linear-gradient" x1="256.06658" y1="237.90129" x2="107.65023" y2="79.90973" gradientUnits="userSpaceOnUse"><stop offset="0" stop-color="#dae3fe"/><stop offset="1" stop-color="#e9effd"/></linearGradient><linearGradient id="linear-gradient-2" x1="115.77811" y1="150.16123" x2="315.14" y2="-137.98271" gradientUnits="userSpaceOnUse"><stop offset="0" stop-color="#4f52ff"/><stop offset="1" stop-color="#4042e2"/></linearGradient><linearGradient id="linear-gradient-3" x1="234.8469" y1="-14.96322" x2="123.60686" y2="132.72594" xlink:href="#linear-gradient-2"/><linearGradient id="linear-gradient-4" x1="118.96811" y1="63.67203" x2="232.26905" y2="63.67203" xlink:href="#linear-gradient"/><linearGradient id="linear-gradient-5" x1="242.18388" y1="-24.70429" x2="130.94404" y2="122.9846" xlink:href="#linear-gradient-2"/><linearGradient id="linear-gradient-6" x1="140.48549" y1="63.67202" x2="210.7514" y2="63.67202" xlink:href="#linear-gradient"/><linearGradient id="linear-gradient-7" x1="260.35746" y1="-48.83267" x2="149.11774" y2="98.85606" xlink:href="#linear-gradient-2"/><linearGradient id="linear-gradient-8" x1="161.07159" y1="63.67202" x2="190.1653" y2="63.67202" xlink:href="#linear-gradient"/><linearGradient id="linear-gradient-9" x1="4861.16566" y1="3906.91198" x2="4845.69658" y2="3969.7549" gradientTransform="translate(834.87655 6264.83045) rotate(-135)" gradientUnits="userSpaceOnUse"><stop offset="0" stop-color="#09005d"/><stop offset="1" stop-color="#1a0f91"/></linearGradient><linearGradient id="linear-gradient-10" x1="99.38105" y1="85.82428" x2="62.35426" y2="112.75288" xlink:href="#linear-gradient-2"/><linearGradient id="linear-gradient-11" x1="122.6247" y1="83.02695" x2="80.12067" y2="103.61715" gradientUnits="userSpaceOnUse"><stop offset="0" stop-color="#febbba"/><stop offset="1" stop-color="#ff928e"/></linearGradient><linearGradient id="linear-gradient-12" x1="123.02673" y1="84.28515" x2="81.09288" y2="104.59913" xlink:href="#linear-gradient-11"/><linearGradient id="linear-gradient-13" x1="33.81951" y1="141.38648" x2="40.63961" y2="141.38648" xlink:href="#linear-gradient-2"/><linearGradient id="linear-gradient-14" x1="34.50052" y1="141.02985" x2="41.75801" y2="141.02985" gradientTransform="matrix(1, 0, 0, 1, 0, 0)" xlink:href="#linear-gradient-9"/><linearGradient id="linear-gradient-15" x1="38.12368" y1="134.92621" x2="43.46056" y2="134.92621" xlink:href="#linear-gradient-11"/><linearGradient id="linear-gradient-16" x1="-610.95716" y1="571.63179" x2="-600.34322" y2="571.63179" gradientTransform="translate(853.17465 -275.78155) rotate(14.81589)" xlink:href="#linear-gradient-2"/><linearGradient id="linear-gradient-17" x1="-613.29906" y1="571.56751" x2="-600.75961" y2="571.56751" gradientTransform="translate(853.17465 -275.78155) rotate(14.81589)" xlink:href="#linear-gradient-9"/><linearGradient id="linear-gradient-18" x1="110.25802" y1="120.64351" x2="116.12149" y2="120.64351" xlink:href="#linear-gradient-11"/><linearGradient id="linear-gradient-19" x1="75.38568" y1="103.76022" x2="41.13763" y2="133.66334" gradientTransform="matrix(1, 0, 0, 1, 0, 0)" xlink:href="#linear-gradient-9"/><linearGradient id="linear-gradient-20" x1="155.00041" y1="64.44836" x2="80.86455" y2="116.17741" gradientTransform="matrix(1, 0, 0, 1, 0, 0)" xlink:href="#linear-gradient-9"/><linearGradient id="linear-gradient-21" x1="92.00546" y1="76.22304" x2="53.50697" y2="104.22197" xlink:href="#linear-gradient-2"/><linearGradient id="linear-gradient-22" x1="68.35753" y1="95.93717" x2="46.33338" y2="57.01072" xlink:href="#linear-gradient-11"/><linearGradient id="linear-gradient-23" x1="87.47569" y1="40.75838" x2="70.4704" y2="99.50408" gradientUnits="userSpaceOnUse"><stop offset="0" stop-color="#53d8ff"/><stop offset="1" stop-color="#3840f7"/></linearGradient><linearGradient id="linear-gradient-24" x1="85.40139" y1="79.63869" x2="87.67921" y2="73.14268" xlink:href="#linear-gradient-11"/><linearGradient id="linear-gradient-25" x1="92.51662" y1="66.13298" x2="81.68323" y2="74.42218" xlink:href="#linear-gradient-11"/><linearGradient id="linear-gradient-26" x1="84.87558" y1="59.89187" x2="94.38708" y2="72.13791" gradientTransform="matrix(1, 0, 0, 1, 0, 0)" xlink:href="#linear-gradient-9"/><linearGradient id="linear-gradient-27" x1="90.93254" y1="64.31081" x2="80.01394" y2="72.6652" xlink:href="#linear-gradient-11"/><linearGradient id="linear-gradient-28" x1="126.58918" y1="82.90785" x2="116.29871" y2="87.89286" xlink:href="#linear-gradient-11"/><linearGradient id="linear-gradient-29" x1="181.49289" y1="179.37563" x2="230.52691" y2="179.37563" xlink:href="#linear-gradient"/></defs><title>defailt-t</title><g id="Illustration"><path class="cls-1" d="M218.91553,167.55574A87.23206,87.23206,0,0,1,203.4501,177.997c-40.05265,22.24335-85.83722,15.83228-99.99268,13.641-22.83808-3.53539-42.11658-6.02945-58.68025-18.47594C7.13951,144.87982,8.97013,85.881,37.72991,49.33379,41.14,45.00035,69.85618,9.59668,115.73986,4.608c1.12225-.122,1.9596-.1915,2.693-.25608,7.0981-.62507,51.08361-3.92405,86.9494,21.068A97.10753,97.10753,0,0,1,226.44,45.292C254.45453,81.2777,254.54328,137.01158,218.91553,167.55574Z"/><path class="cls-2" d="M31.2699,68.42822a1.17121,1.17121,0,0,1,2.13838.08256c2.148,9.0501,8.674,32.63424,20.914,45.72452,19.92954,21.314,31.387,54.554,15.83012,70.362C70.15238,184.59727-4.583,168.02216,31.2699,68.42822Z"/><path class="cls-3" d="M32.17383,81.2c-.00041.29119.027.53149.04293.791l.06684.76419.15393,1.52553c.111,1.01609.24061,2.03041.37035,3.04479q.40231,3.04169.88751,6.07524c.65062,4.04415,1.43283,8.07313,2.28775,12.09148.84818,4.0197,1.83154,8.01967,2.91633,12.00063,1.089,3.98,2.24609,7.94874,3.55954,11.8837a174.53008,174.53008,0,0,0,9.50525,23.18234c1.93343,3.75636,3.98589,7.47273,6.29319,11.08208a104.7353,104.7353,0,0,0,7.6795,10.45229.21926.21926,0,0,0,.26933.03934.14468.14468,0,0,0,.05178-.21856l-.00148-.00185a115.31757,115.31757,0,0,1-7.28882-10.57808c-2.22443-3.61981-4.19375-7.34388-6.04363-11.10494-1.8479-3.76308-3.51319-7.58739-5.07373-11.4402-1.559-3.85432-2.92535-7.76039-4.265-11.67172-2.63981-7.83439-4.77541-15.783-6.64683-23.77234q-1.38831-5.99525-2.49722-12.03368-.563-3.01737-1.05151-6.04415l-.45595-3.02962-.20924-1.51607-.09443-.75817c-.02611-.24874-.05921-.5158-.07127-.73421l-.002-.03609a.18143.18143,0,0,0-.20024-.152A.17653.17653,0,0,0,32.17383,81.2Z"/><path class="cls-4" d="M72.36515,61.42105c.60155-.76358,2.03721-.348,1.93393.56092-.99863,8.78677-2.74939,31.89533,4.18175,46.677,11.28554,24.06794,10.89007,57.15041-8.56127,68.11732C69.91956,176.77628,6.82,144.61876,72.36515,61.42105Z"/><path class="cls-2" d="M69.00185,73.33752c-.0962.26748-.14983.49381-.22049.73543l-.18955.716-.35971,1.43388c-.23185.957-.44588,1.91657-.6598,2.8762q-.62947,2.8806-1.18025,5.7726c-.73064,3.85634-1.33521,7.7286-1.86992,11.60766-.54138,3.87873-.95184,7.77011-1.26288,11.66709-.307,3.897-.54779,7.79924-.63413,11.706a156.08158,156.08158,0,0,0,1.11433,23.417,117.70319,117.70319,0,0,0,2.13847,11.59106,88.08921,88.08921,0,0,0,3.61788,11.32747.19912.19912,0,0,0,.23842.09892.15343.15343,0,0,0,.12132-.19207l-.00076-.00206a97.78641,97.78641,0,0,1-3.211-11.35473A116.72584,116.72584,0,0,1,64.746,143.18324c-.45978-3.87007-.73253-7.75482-.89964-11.642-.16531-3.88819-.13664-7.78014-.08262-11.67081.14815-7.78323.79714-15.55676,1.69994-23.308q.69223-5.81285,1.65494-11.602.47262-2.89478,1.01668-5.78145l.57479-2.88179.30491-1.43786.16179-.71673c.05754-.23394.11479-.4866.175-.689l.01021-.03421a.15586.15586,0,0,0-.13637-.18811A.19426.19426,0,0,0,69.00185,73.33752Z"/><g class="cls-5"><path class="cls-4" d="M44.11968,29.42189a.65135.65135,0,0,1-.68044-.51031,19.0656,19.0656,0,0,1-.14385-1.93938.63005.63005,0,0,1,.67178-.58064h.01337a.6382.6382,0,0,1,.68464.55883,18.12483,18.12483,0,0,0,.13659,1.84234.60657.60657,0,0,1-.61.62606C44.16761,29.421,44.14353,29.42189,44.11968,29.42189Zm.04417-4.96349c-.02677,0-.05392-.00132-.08122-.004a.60318.60318,0,0,1-.59994-.63274,19.44337,19.44337,0,0,1,.37235-1.91688.69255.69255,0,0,1,.80892-.44356.58146.58146,0,0,1,.533.67278,18.44771,18.44771,0,0,0-.35361,1.82164A.65356.65356,0,0,1,44.16386,24.4584Zm1.357-4.83195a.811.811,0,0,1-.22984-.03315.55053.55053,0,0,1-.41544-.728c.26011-.6076.55538-1.21341.87756-1.8005a.74854.74854,0,0,1,.90764-.28177.53487.53487,0,0,1,.33875.75492c-.306.55751-.58626,1.13261-.83339,1.7097A.69084.69084,0,0,1,45.5209,19.62645Zm2.6226-4.45917a.78585.78585,0,0,1-.36766-.08947.51613.51613,0,0,1-.20926-.78673c.41745-.54416.868-1.07986,1.3394-1.5922a.78185.78185,0,0,1,.96037-.10616.50908.50908,0,0,1,.12763.79877c-.44767.48652-.87581.99528-1.27222,1.5125A.728.728,0,0,1,48.1435,15.16728Zm3.75222-3.86071a.758.758,0,0,1-.48729-.16937.50467.50467,0,0,1,.00589-.80567c.5507-.45245,1.13255-.89178,1.72929-1.3053a.78328.78328,0,0,1,.96478.07277.50693.50693,0,0,1-.08766.80255c-.56728.393-1.12025.81057-1.64363,1.24055A.75991.75991,0,0,1,51.89572,11.30658ZM56.581,8.2326a.72574.72574,0,0,1-.5824-.26885.51736.51736,0,0,1,.21994-.78475c.65841-.34051,1.34274-.66189,2.03379-.95477a.75606.75606,0,0,1,.92143.24905.52809.52809,0,0,1-.2993.76626c-.65666.27841-1.30674.58354-1.93238.90713A.78614.78614,0,0,1,56.581,8.2326ZM81.68286,6.8761a.80076.80076,0,0,1-.283-.05118c-.67-.25326-1.36242-.48561-2.05785-.69038a.55062.55062,0,0,1-.417-.72709.728.728,0,0,1,.87432-.347c.73239.21567,1.46169.46027,2.16731.72689a.535.535,0,0,1,.34023.75446A.70474.70474,0,0,1,81.68286,6.8761Zm-19.71751-.776a.68918.68918,0,0,1-.64757-.38415.55241.55241,0,0,1,.42425-.72442c.73305-.21031,1.48605-.39659,2.23809-.55372a.7056.7056,0,0,1,.83139.41373.57121.57121,0,0,1-.49757.69149c-.7142.14911-1.42919.32605-2.12531.5257A.814.814,0,0,1,61.96535,6.10006Zm14.041-.75471a.82114.82114,0,0,1-.13714-.01135c-.72166-.12218-1.45925-.21988-2.19216-.29087a.60372.60372,0,0,1-.60128-.63185.66729.66729,0,0,1,.75969-.50008c.77116.07477,1.54731.1776,2.3067.306a.58194.58194,0,0,1,.53478.67192A.66708.66708,0,0,1,76.00631,5.34535Zm-8.21886-.324a.65173.65173,0,0,1-.68034-.50921.60635.60635,0,0,1,.60849-.62718c.77023-.06832,1.55442-.10994,2.33068-.1233l.01458-.00022a.63855.63855,0,0,1,.6846.55774.62934.62934,0,0,1-.67055.58155c-.73735.01289-1.48216.0525-2.214.1175C67.83627,5.0202,67.81166,5.02131,67.78745,5.02131Z"/><path class="cls-4" d="M85.86414,8.854a.78081.78081,0,0,1-.39041-.10191c-.28993-.1678-.58894-.33317-.88866-.49208a.51608.51608,0,0,1-.20991-.78653.77062.77062,0,0,1,.94578-.17448c.31536.16692.62975.341.93495.51745a.51237.51237,0,0,1,.17138.793A.73361.73361,0,0,1,85.86414,8.854Z"/></g><g class="cls-5"><path class="cls-4" d="M96.99275,23.55305a.66031.66031,0,0,1-.67567-.47961c-.0558-.29-.11988-.584-.19052-.87354a.582.582,0,0,1,.53517-.67169.691.691,0,0,1,.80758.44513c.07425.30489.14182.61446.20068.91983a.59246.59246,0,0,1-.56807.65275A.82485.82485,0,0,1,96.99275,23.55305Z"/><path class="cls-4" d="M70.679,49.27075q-.47278,0-.94911-.01336a.62613.62613,0,0,1-.66162-.58866.64548.64548,0,0,1,.70766-.5504c.73277.02048,1.46486.01625,2.18427-.01313a.64953.64953,0,0,1,.71782.541.62167.62167,0,0,1-.65065.59714C71.58233,49.26161,71.12865,49.27075,70.679,49.27075ZM66.132,48.95094a.82669.82669,0,0,1-.11626-.00825c-.75338-.107-1.50972-.24192-2.24784-.40083a.56938.56938,0,0,1-.49157-.69416.70587.70587,0,0,1,.83487-.40883c.70108.15089,1.41954.27885,2.13547.3808a.5896.5896,0,0,1,.55977.65742A.66193.66193,0,0,1,66.132,48.95094Zm9.47491-.06188a.66469.66469,0,0,1-.67244-.46426.58563.58563,0,0,1,.54654-.66547c.71124-.11126,1.42637-.24948,2.12582-.41106a.71132.71132,0,0,1,.84332.39661.56558.56558,0,0,1-.477.7015c-.73654.17-1.48981.31557-2.23877.43287A.82735.82735,0,0,1,75.60694,48.88906ZM60.48612,47.60245a.80687.80687,0,0,1-.26061-.04319c-.706-.24191-1.40817-.51188-2.08678-.80232a.52734.52734,0,0,1-.29554-.76715.75619.75619,0,0,1,.9225-.24592c.64435.27573,1.311.53212,1.98162.76182a.5411.5411,0,0,1,.37246.74377A.6991.6991,0,0,1,60.48612,47.60245Zm20.7329-.14223a.70185.70185,0,0,1-.62909-.34386.53823.53823,0,0,1,.35708-.74912c.664-.23857,1.32508-.50432,1.965-.78962a.75964.75964,0,0,1,.92743.233.52507.52507,0,0,1-.28014.77115c-.67365.30046-1.36965.58021-2.06884.83149A.80307.80307,0,0,1,81.219,47.46022Zm5.09935-2.41854a.73724.73724,0,0,1-.5547-.23478.51072.51072,0,0,1,.15159-.79587c.58695-.35477,1.1628-.73422,1.71147-1.12771a.78382.78382,0,0,1,.96612.0592.50622.50622,0,0,1-.07132.80367c-.57744.41416-1.18337.81344-1.8011,1.18667A.77853.77853,0,0,1,86.31836,45.04168Zm4.34411-3.28562a.76683.76683,0,0,1-.453-.14264.50566.50566,0,0,1-.06034-.80412c.48058-.45291.94335-.92739,1.37552-1.41079a.77935.77935,0,0,1,.95848-.11707.50992.50992,0,0,1,.14076.79721c-.45488.50853-.9419,1.00818-1.4475,1.48467A.751.751,0,0,1,90.66247,41.75606Zm3.37894-3.99512a.7933.7933,0,0,1-.32941-.07056.52356.52356,0,0,1-.27026-.7736c.34971-.529.67606-1.0763.97012-1.6269a.74609.74609,0,0,1,.904-.28955.53643.53643,0,0,1,.348.752c-.30971.58-.65342,1.1564-1.02149,1.71326A.71758.71758,0,0,1,94.04142,37.76094Zm2.24288-4.51637a.81589.81589,0,0,1-.18986-.02249.56319.56319,0,0,1-.46867-.70505c.20027-.57866.37356-1.172.51484-1.764a.69165.69165,0,0,1,.8053-.4478.583.583,0,0,1,.53851.66991c-.14879.62314-.33114,1.24788-.54212,1.857A.68068.68068,0,0,1,96.2843,33.24456Zm.99448-4.8126-.04241-.00112a.61831.61831,0,0,1-.64195-.60334c.03252-.44335.049-.89268.049-1.336q0-.24069-.00642-.48027a.69666.69666,0,0,1,1.36976-.02493q.00662.25208.00669.50521c0,.46626-.01738.9392-.05163,1.40546A.64447.64447,0,0,1,97.27877,28.432Z"/><path class="cls-4" d="M55.32268,45.24488a.78175.78175,0,0,1-.39336-.10349c-.30344-.17738-.60808-.36343-.90548-.553a.50888.50888,0,0,1-.12712-.79877.78065.78065,0,0,1,.96038-.10572c.28255.18006.572.35677.86.52524a.51183.51183,0,0,1,.16659.79364A.73476.73476,0,0,1,55.32268,45.24488Z"/></g><path class="cls-4" d="M56.247,38.63637a.36285.36285,0,0,0,.35854.08157l3.65728-1.11862a18.29587,18.29587,0,0,0,4.842,2.16881l.892,3.15281a.30714.30714,0,0,0,.27937.20394l4.65031.39183a.33568.33568,0,0,0,.32289-.15317l1.634-2.94a19.59284,19.59284,0,0,0,5.26658-1.31717l3.31332,1.70592a.37325.37325,0,0,0,.37089-.0201l3.62136-2.4579a.23936.23936,0,0,0,.09807-.29823l-1.34491-3.04184a13.568,13.568,0,0,0,2.60756-4.02728l3.79075-.74193a.28851.28851,0,0,0,.24518-.23234l.47107-3.86784a.26234.26234,0,0,0-.18421-.26851l-3.53483-1.35911a12.42594,12.42594,0,0,0-1.58359-4.38034L88.07182,17.361a.23122.23122,0,0,0-.0242-.30847l-2.95519-3.012a.36266.36266,0,0,0-.35853-.08159l-3.65728,1.11865a18.2921,18.2921,0,0,0-4.842-2.16881l-.892-3.1529a.30723.30723,0,0,0-.27935-.20394l-4.65037-.39176a.33533.33533,0,0,0-.32286.1532l-1.634,2.94a19.58954,19.58954,0,0,0-5.2666,1.31715l-3.31327-1.7059a.37317.37317,0,0,0-.37095.02008L55.88381,14.3427a.23946.23946,0,0,0-.0981.2982l1.34491,3.04184A13.56716,13.56716,0,0,0,54.52308,21.71l-3.79075.74191a.2884.2884,0,0,0-.24513.23239l-.47107,3.86774a.26248.26248,0,0,0,.18415.26858l3.53483,1.35908a12.42853,12.42853,0,0,0,1.5836,4.38034l-2.051,2.75578a.23118.23118,0,0,0,.02414.30853Z"/><path class="cls-2" d="M70.66665,30.24647c-2.29026,0-4.30127-1.39878-4.645-3.33815-.37769-2.13186,1.40013-4.12154,3.96308-4.43579a5.39565,5.39565,0,0,1,3.48728.72932,3.8322,3.8322,0,0,1,1.84579,2.56676c.37772,2.13189-1.40012,4.12154-3.963,4.43579A5.66708,5.66708,0,0,1,70.66665,30.24647Zm.01072-6.90464a4.38445,4.38445,0,0,0-.53289.0325c-1.965.24082-3.32809,1.76667-3.03858,3.40092A3.56352,3.56352,0,0,0,71.195,29.30261c1.965-.2408,3.32809-1.76666,3.03858-3.4009a2.9388,2.9388,0,0,0-1.41525-1.96809A4.07545,4.07545,0,0,0,70.67737,23.34183Z"/><path class="cls-2" d="M70.76272,35.89054q-.59,0-1.18566-.04984h0q-.18725-.01569-.374-.03651a13.68944,13.68944,0,0,1-1.80848-.32471l-.02408-.006-.06823-.01759c-.04428-.01134-.08842-.02315-.13245-.03494a.23623.23623,0,0,1-.18973-.21655.19417.19417,0,0,1,.01351-.07055.28887.28887,0,0,1,.34506-.14645,13.03,13.03,0,0,0,2.29346.39971,12.10543,12.10543,0,0,0,9.75361-3.4463,8.33679,8.33679,0,0,0,2.3039-4.73737,7.73407,7.73407,0,0,0,.05727-.94077,8.20215,8.20215,0,0,0-2.47971-5.76825A11.70332,11.70332,0,0,0,71.85044,17.175c-6.03966-.50833-11.44607,3.16276-12.05751,8.18366a7.64641,7.64641,0,0,0-.05631.92874A7.86563,7.86563,0,0,0,60.775,30.16526a.19483.19483,0,0,1,.026.09681.22862.22862,0,0,1-.1575.20629.2998.2998,0,0,1-.36456-.10948,8.25844,8.25844,0,0,1-1.09027-4.07126,8.0553,8.0553,0,0,1,.059-.9748c.64194-5.27152,6.32224-9.12511,12.658-8.59142a12.28572,12.28572,0,0,1,7.78618,3.48481,8.611,8.611,0,0,1,2.60334,6.05558,8.18985,8.18985,0,0,1-.06006.98749,9.22013,9.22013,0,0,1-4.18973,6.47621A12.9681,12.9681,0,0,1,70.76272,35.89054Z"/><g class="cls-5"><path class="cls-4" d="M20.74307,44.43656a.42039.42039,0,0,1-.40575-.25291c-.1012-.28662-.19335-.57975-.27374-.87116a.3557.3557,0,0,1,.31774-.42168.43083.43083,0,0,1,.507.26428c.07662.27769.16442.55706.26093.83063a.34738.34738,0,0,1-.28678.43678A.50919.50919,0,0,1,20.74307,44.43656Z"/><path class="cls-4" d="M20.11688,41.78014a.402.402,0,0,1-.42039-.31615,12.73589,12.73589,0,0,1-.09465-1.54611q0-.16236.00415-.32579a.41052.41052,0,0,1,.432-.34469.38906.38906,0,0,1,.41421.35912q-.004.15618-.00414.31136a12.18965,12.18965,0,0,0,.09007,1.4746.37513.37513,0,0,1-.37782.38593C20.14561,41.77944,20.13115,41.78014,20.11688,41.78014Zm.093-3.653a.519.519,0,0,1-.06071-.00341.36867.36867,0,0,1-.35866-.39864,13.04574,13.04574,0,0,1,.45677-1.8341.43923.43923,0,0,1,.51939-.24707.34982.34982,0,0,1,.29705.432,12.47283,12.47283,0,0,0-.4357,1.74954A.406.406,0,0,1,20.20984,38.1271Zm1.15526-3.52516a.50252.50252,0,0,1-.16094-.02646A.33439.33439,0,0,1,20.974,34.116a14.27749,14.27749,0,0,1,.98543-1.6856.4709.4709,0,0,1,.5766-.133.32256.32256,0,0,1,.1601.4794,13.58672,13.58672,0,0,0-.93957,1.60727A.43214.43214,0,0,1,21.3651,34.60195Zm2.162-3.1812a.48294.48294,0,0,1-.25162-.06908.31519.31519,0,0,1-.08783-.49245,16.36843,16.36843,0,0,1,1.45087-1.43336.48626.48626,0,0,1,.59809-.01168.31184.31184,0,0,1,.01426.49759,15.57253,15.57253,0,0,0-1.38352,1.36671A.456.456,0,0,1,23.52707,31.42074Zm3.03046-2.64544a.46074.46074,0,0,1-.32748-.12887.31332.31332,0,0,1,.0589-.4952,18.8189,18.8189,0,0,1,1.825-1.09659.47547.47547,0,0,1,.58383.10895.319.319,0,0,1-.131.48555,17.92115,17.92115,0,0,0-1.74112,1.04644A.47767.47767,0,0,1,26.55753,28.77531ZM30.26764,26.822a.43724.43724,0,0,1-.38282-.20174.32907.32907,0,0,1,.20186-.46838,20.5188,20.5188,0,0,1,2.0911-.69317.44671.44671,0,0,1,.534.22476.343.343,0,0,1-.27.444,19.5553,19.5553,0,0,0-1.99358.66084A.49263.49263,0,0,1,30.26764,26.822Zm4.17061-1.13924a.41132.41132,0,0,1-.4148-.28419.36075.36075,0,0,1,.334-.41307,21.87613,21.87613,0,0,1,2.23284-.24538.40691.40691,0,0,1,.45157.32681.38058.38058,0,0,1-.39251.37562,20.73855,20.73855,0,0,0-2.12952.2337A.50772.50772,0,0,1,34.43825,25.68277Zm6.56892-.04466a.50137.50137,0,0,1-.07439-.00549c-.60735-.0897-1.23125-.15329-1.85455-.189-.09439-.00584-.18713-.01066-.2797-.01446a.38355.38355,0,0,1-.40059-.36975.39778.39778,0,0,1,.44437-.33335c.09875.00447.19729.00929.29625.01545.65118.03748,1.30525.10412,1.94213.19829a.363.363,0,0,1,.34253.40792A.40933.40933,0,0,1,41.00717,25.63811Z"/></g><g class="cls-5"><path class="cls-4" d="M38.12463,55.10113a.35746.35746,0,1,1-.00537-.7038,20.98343,20.98343,0,0,0,2.1068-.12887.41832.41832,0,0,1,.476.30172.37.37,0,0,1-.36277.39589,22.09952,22.09952,0,0,1-2.20885.13506Zm-2.16214-.08488c-.01532,0-.03038-.0007-.04587-.00208a21.9593,21.9593,0,0,1-2.18469-.30619.35537.35537,0,0,1-.3169-.422.433.433,0,0,1,.50738-.26393,20.99211,20.99211,0,0,0,2.08467.29243.37408.37408,0,0,1,.37541.3873A.40242.40242,0,0,1,35.96249,55.01625Zm6.4433-.39624a.418.418,0,0,1-.409-.26256.35112.35112,0,0,1,.30163-.42956,20.14991,20.14991,0,0,0,2.00762-.54918.45525.45525,0,0,1,.5493.19728.33576.33576,0,0,1-.23693.457,21.07929,21.07929,0,0,1-2.10473.57528A.50384.50384,0,0,1,42.40579,54.62Zm-10.65423-.41549a.5034.5034,0,0,1-.145-.02128,20.22373,20.22373,0,0,1-2.03225-.73645.32617.32617,0,0,1-.18447-.47355A.46819.46819,0,0,1,29.959,52.82a19.36749,19.36749,0,0,0,1.9376.70207.33907.33907,0,0,1,.25246.45121A.42762.42762,0,0,1,31.75156,54.20452Zm14.66826-.912a.44267.44267,0,0,1-.37165-.18316.32371.32371,0,0,1,.16835-.47767,18.25193,18.25193,0,0,0,1.78948-.934.48009.48009,0,0,1,.59043.08146.31589.31589,0,0,1-.09791.49108,19.29073,19.29073,0,0,1-1.87625.9794A.49121.49121,0,0,1,46.41982,53.29247Zm3.51409-2.08972a.46577.46577,0,0,1-.31216-.11412.31211.31211,0,0,1,.026-.49724,16.38865,16.38865,0,0,0,1.46987-1.26328.48443.48443,0,0,1,.59665-.03815.31237.31237,0,0,1,.04586.4959,17.144,17.144,0,0,1-1.54057,1.32445A.47274.47274,0,0,1,49.93391,51.20275Zm2.81125-2.73a.4811.4811,0,0,1-.23406-.05908.31751.31751,0,0,1-.11778-.488,14.05108,14.05108,0,0,0,1.0623-1.51965.46675.46675,0,0,1,.56792-.15635.3267.3267,0,0,1,.1882.4725A14.84784,14.84784,0,0,1,53.09781,48.316.45181.45181,0,0,1,52.74517,48.47275Z"/><path class="cls-4" d="M27.88507,52.56154a.48387.48387,0,0,1-.23676-.06049c-.3-.16874-.59517-.34571-.8778-.52578a.31459.31459,0,0,1-.07853-.4935.48392.48392,0,0,1,.59335-.06528c.26939.17183.55117.34057.8373.50174a.31709.31709,0,0,1,.11322.48864A.45251.45251,0,0,1,27.88507,52.56154Z"/></g><path class="cls-4" d="M28.23679,48.01553a.24274.24274,0,0,0,.23989.05458l2.4473-.74853A12.24227,12.24227,0,0,0,34.164,48.77285l.5969,2.1097a.20551.20551,0,0,0,.18692.13647l3.11177.2622a.22459.22459,0,0,0,.21607-.10251l1.09341-1.96733A13.11033,13.11033,0,0,0,42.89328,48.33l2.2171,1.14152a.24986.24986,0,0,0,.24823-.01348l2.42322-1.64471a.16019.16019,0,0,0,.06562-.19956l-.9-2.03546a9.07826,9.07826,0,0,0,1.74488-2.69488L51.229,42.387a.1931.1931,0,0,0,.16408-.15547l.31521-2.58819a.17553.17553,0,0,0-.12325-.17969l-2.36535-.90945A8.31447,8.31447,0,0,0,48.16,35.62313L49.53244,33.779a.15471.15471,0,0,0-.01616-.20639l-1.9775-2.01551a.24274.24274,0,0,0-.23989-.05458l-2.4473.74856a12.23942,12.23942,0,0,0-3.24006-1.45127l-.59691-2.10978a.20554.20554,0,0,0-.18691-.13647l-3.11182-.26217a.22446.22446,0,0,0-.216.10251l-1.0934,1.96733a13.10916,13.10916,0,0,0-3.52421.88136l-2.21706-1.14149a.24967.24967,0,0,0-.24823.01344l-2.42323,1.64471a.16023.16023,0,0,0-.06562.19956l.89992,2.03546a9.07841,9.07841,0,0,0-1.74485,2.69488l-2.53662.49642a.19294.19294,0,0,0-.164.1555l-.31525,2.58812a.17565.17565,0,0,0,.12325.17972l2.36534.90945a8.3167,8.3167,0,0,0,1.05964,2.93111l-1.37244,1.84406a.15476.15476,0,0,0,.01617.20646Z"/><path class="cls-2" d="M37.88105,42.44854a3.62054,3.62054,0,0,1-1.90223-.52578,2.6106,2.6106,0,0,1-1.2571-1.74852A2.78551,2.78551,0,0,1,37.421,37.15287a3.16713,3.16713,0,0,1,3.6329,2.2454,2.31851,2.31851,0,0,1-.59728,1.97567,3.33882,3.33882,0,0,1-2.10244,1.04574A3.91555,3.91555,0,0,1,37.88105,42.44854Zm.00808-4.62041a2.86008,2.86008,0,0,0-.34482.021,2.04913,2.04913,0,0,0-1.9855,2.22274,1.92019,1.92019,0,0,0,.92467,1.28595,2.70889,2.70889,0,0,0,1.74754.36566h0a2.45807,2.45807,0,0,0,1.54633-.76911,1.70635,1.70635,0,0,0,.43943-1.45367A2.26552,2.26552,0,0,0,37.88913,37.82813Z"/><path class="cls-2" d="M37.94181,46.37719q-.4016,0-.80942-.034a9.45019,9.45019,0,0,1-1.59092-.27114l-.06943-.01858a.36474.36474,0,0,1-.293-.33437.29971.29971,0,0,1,.02086-.10891.44641.44641,0,0,1,.5328-.22613,8.41919,8.41919,0,0,0,1.48455.25878h.00022l.083.00651a8.34625,8.34625,0,0,0,3.4459-.45394,7.569,7.569,0,0,0,1.64321-.82306l.0124-.00824.03761-.02544a5.68577,5.68577,0,0,0,2.58358-3.99357,4.99594,4.99594,0,0,0,.03719-.609,5.3114,5.3114,0,0,0-1.60539-3.73447,7.57679,7.57679,0,0,0-4.80136-2.14853,8.10614,8.10614,0,0,0-5.22216,1.30418A5.6857,5.6857,0,0,0,30.848,39.15085a4.93541,4.93541,0,0,0-.03656.601,5.09115,5.09115,0,0,0,.67221,2.51039.30054.30054,0,0,1,.04011.14948.35308.35308,0,0,1-.24315.31858.46355.46355,0,0,1-.563-.16908,5.70017,5.70017,0,0,1-.75238-2.80865,5.56148,5.56148,0,0,1,.0407-.67255,6.36106,6.36106,0,0,1,2.89079-4.46814,9.051,9.051,0,0,1,5.84213-1.45915,8.47389,8.47389,0,0,1,5.37173,2.40418,5.94005,5.94005,0,0,1,1.79608,4.17778,5.64187,5.64187,0,0,1-.04133.6811C45.44966,43.82658,41.97813,46.37719,37.94181,46.37719Z"/><ellipse class="cls-6" cx="175.61854" cy="63.67201" rx="64.58821" ry="53.7199"/><ellipse class="cls-7" cx="175.61854" cy="63.67203" rx="55.12359" ry="45.84788"/><path class="cls-8" d="M175.61858,110.79c-31.23716,0-56.65047-21.137-56.65047-47.11782,0-25.98107,25.41331-47.118,56.65047-47.118s56.65047,21.137,56.65047,47.118C232.26905,89.653,206.85573,110.79,175.61858,110.79Zm0-91.69589c-29.55326,0-53.59663,19.99756-53.59663,44.57807,0,24.58028,24.04337,44.57784,53.59663,44.57784S229.2152,88.25242,229.2152,63.67214C229.2152,39.09162,205.17183,19.09406,175.61858,19.09406Z"/><ellipse class="cls-9" cx="175.61852" cy="63.67201" rx="33.60597" ry="27.95105"/><path class="cls-10" d="M175.61858,92.89311c-19.37258,0-35.13309-13.10846-35.13309-29.221,0-16.11273,15.76051-29.2212,35.13309-29.2212,19.37231,0,35.13282,13.10847,35.13282,29.2212C210.7514,79.78465,194.99089,92.89311,175.61858,92.89311Zm0-55.90219c-17.68869,0-32.07924,11.969-32.07924,26.68122,0,14.712,14.39056,26.681,32.07924,26.681,17.68841,0,32.079-11.969,32.079-26.681C207.69755,48.96,193.307,36.99091,175.61858,36.99091Z"/><ellipse class="cls-11" cx="175.61852" cy="63.67201" rx="13.01994" ry="10.82905"/><path class="cls-12" d="M175.61858,75.77106c-8.02124,0-14.547-5.42766-14.547-12.09892,0-6.67149,6.52576-12.09915,14.547-12.09915,8.021,0,14.54672,5.42766,14.54672,12.09915C190.1653,70.3434,183.63954,75.77106,175.61858,75.77106Zm0-21.6581c-6.33733,0-11.49315,4.28824-11.49315,9.55918,0,5.27072,5.15582,9.55895,11.49315,9.55895,6.33706,0,11.49287-4.28823,11.49287-9.55895C187.11145,58.4012,181.95564,54.113,175.61858,54.113Z"/><polygon class="cls-13" points="237.838 10.609 239.295 11.821 184.136 57.698 182.679 56.487 237.838 10.609"/><path class="cls-14" d="M183.71082,53.56337c.83564-.69507,4.7753,2.58166,3.93961,3.27668l-14.61192,9.55428c-.53985.353-1.23935-.22881-.815-.67785Z"/><path class="cls-4" d="M239.26342,11.84693l7.42059.61343-10.18707,8.47288a17.72187,17.72187,0,0,1-12.69365,3.77224h0Z"/><path class="cls-4" d="M237.80674,10.63541l-.73754-6.172-10.18707,8.47288A11.89516,11.89516,0,0,0,222.34666,23.494h0Z"/><path class="cls-14" d="M180.31872,30.74586l-6.5475-2.35232a1.98513,1.98513,0,0,0-1.56384.0994l-6.04174,3.15252c-1.1832.61739-2.704-.16168-2.57345-1.31832l.66652-5.90616a1.29926,1.29926,0,0,0-.59692-1.20632L158.19,19.40972c-1.07157-.74514-.65068-2.18886.71226-2.443l6.95943-1.29785a1.63534,1.63534,0,0,0,1.19494-.84495l2.65994-5.50408a1.84837,1.84837,0,0,1,3.01365-.19157l3.63465,5.104a1.75431,1.75431,0,0,0,1.33543.68413l7.11576.40322c1.39355.079,2.07328,1.45269,1.15029,2.32463l-4.71313,4.45232a1.2349,1.2349,0,0,0-.36957,1.26775l1.73779,5.75332C182.96178,30.24433,181.601,31.20656,180.31872,30.74586Z"/><path class="cls-15" d="M165.42649,22.87618a2.95354,2.95354,0,0,0-.71972-.70124l-3.57319-2.485a.95818.95818,0,0,1-.42174-1.0651,1.18625,1.18625,0,0,1,.96125-.78569l4.54509-.84775a3.21675,3.21675,0,0,0,2.35059-1.66192l1.73719-3.59482a1.27075,1.27075,0,0,1,1.08715-.66271,1.35592,1.35592,0,0,1,1.19594.5177l1.21285,1.70311-.31156.15357-1.21289-1.70314a.96183.96183,0,0,0-.85675-.37092.89843.89843,0,0,0-.77876.47477l-1.73719,3.5948a3.56824,3.56824,0,0,1-2.60735,1.84376l-4.5451.84772a.83878.83878,0,0,0-.68857.5627.678.678,0,0,0,.30219.76274l3.57321,2.485a3.2847,3.2847,0,0,1,.79824.77773Z"/><path class="cls-15" d="M166.717,29.56724a1.47275,1.47275,0,0,1-.66947-.15885,1.01243,1.01243,0,0,1-.60158-1.00335l.333-2.95093.36074.02827-.333,2.9509a.71579.71579,0,0,0,.43075.71863,1.05187,1.05187,0,0,0,.9657-.00353l3.94546-2.05846a4.3755,4.3755,0,0,1,3.41245-.2171l4.276,1.53633a1.04546,1.04546,0,0,0,.95505-.11881.67619.67619,0,0,0,.29462-.7648l-1.13491-3.75776a2.69336,2.69336,0,0,1,.80654-2.76563l3.07793-2.90825a.65237.65237,0,0,0,.15949-.79215.90149.90149,0,0,0-.78354-.46917l-4.64765-.26327A4.2483,4.2483,0,0,1,176.189,16.261l.16018-.27a3.82835,3.82835,0,0,0,1.24015.2777l4.64746.26325a1.275,1.275,0,0,1,1.09368.65507.921.921,0,0,1-.22244,1.10571L180.03008,21.201a2.42821,2.42821,0,0,0-.72714,2.49323l1.13491,3.75779a.95574.95574,0,0,1-.41114,1.06777,1.477,1.477,0,0,1-1.33327.16589l-4.276-1.53633a3.9413,3.9413,0,0,0-3.07631.1959l-3.94565,2.05846A1.47193,1.47193,0,0,1,166.717,29.56724Z"/><polygon class="cls-15" points="174.209 14.456 173.49 13.446 173.802 13.293 174.521 14.302 174.209 14.456"/><path class="cls-14" d="M152.74385,40.81825l-4.785-1.71912a1.45075,1.45075,0,0,0-1.14287.07263l-4.41541,2.30392c-.86471.45118-1.97608-.11815-1.88069-.96344l.4871-4.31629a.94962.94962,0,0,0-.43623-.88161l-3.99889-2.78069c-.78313-.5446-.47554-1.59967.52053-1.78542l5.086-.94849a1.195,1.195,0,0,0,.87328-.61751l1.944-4.02246a1.3508,1.3508,0,0,1,2.20239-.14l2.65626,3.7301a1.282,1.282,0,0,0,.97595.5l5.2003.29465c1.01842.05774,1.51519,1.06167.84064,1.69891l-3.44441,3.2538a.90251.90251,0,0,0-.27012.92649l1.27,4.20461C154.67542,40.45172,153.68092,41.15492,152.74385,40.81825Z"/><path class="cls-15" d="M141.86038,35.067a2.159,2.159,0,0,0-.526-.51249l-2.61133-1.81606a.70031.70031,0,0,1-.30824-.77841.86694.86694,0,0,1,.70249-.5742l3.32165-.61955a2.351,2.351,0,0,0,1.71785-1.21456l1.26957-2.62715a.92869.92869,0,0,1,.79448-.48431.991.991,0,0,1,.874.37833l.88637,1.24467-.22769.11222-.8864-1.24467a.703.703,0,0,0-.62611-.27107.65662.65662,0,0,0-.56914.34695l-1.26956,2.62715a2.60776,2.60776,0,0,1-1.90553,1.34744l-3.3216.61952a.613.613,0,0,0-.5032.41124.49546.49546,0,0,0,.22084.55742l2.61138,1.81607a2.40021,2.40021,0,0,1,.58333.56837Z"/><path class="cls-15" d="M142.8035,39.95687a1.0763,1.0763,0,0,1-.48924-.11607.73987.73987,0,0,1-.43964-.73327l.24334-2.15659.26361.02065-.24333,2.15656a.52308.52308,0,0,0,.31483.52518.76871.76871,0,0,0,.7057-.00257l2.88342-1.50435a3.1976,3.1976,0,0,1,2.49386-.15866l3.12495,1.12277a.764.764,0,0,0,.69795-.08682.49417.49417,0,0,0,.21532-.55892l-.82942-2.74624a1.96837,1.96837,0,0,1,.58942-2.02113l2.24941-2.12542a.4767.4767,0,0,0,.11657-.5789.65879.65879,0,0,0-.57262-.34288l-3.39656-.1924a3.10586,3.10586,0,0,1-1.0053-.22527l.11709-.19736a2.79707,2.79707,0,0,0,.9063.20293l3.39642.1924a.93181.93181,0,0,1,.79931.47875.67316.67316,0,0,1-.1626.80806l-2.24938,2.1254a1.77451,1.77451,0,0,0-.5314,1.82208l.82943,2.74625a.69853.69853,0,0,1-.30047.78034,1.07939,1.07939,0,0,1-.97442.12123l-3.12492-1.12277a2.88055,2.88055,0,0,0-2.24822.14316l-2.88353,1.50434A1.07541,1.07541,0,0,1,142.8035,39.95687Z"/><polygon class="cls-15" points="148.279 28.913 147.754 28.175 147.981 28.063 148.506 28.801 148.279 28.913"/><path class="cls-14" d="M161.25933,182.03987l43.08252-68.64841H195.515c-1.62767,0-2.5228-1.574-1.49042-2.62053L239.942,64.22413c1.99008-2.01739,5.92127-.73785,5.73649,1.86709l-3.22771,45.51708c-.1848,2.60568-2.96272,4.54772-6.08067,4.2509l-6.15407-.58579-42.74653,76.99615A7.0055,7.0055,0,0,1,181.29,195.5574h-14.8154Z"/><path class="cls-14" d="M125.6394,133.89361l30.41536,56.1949c1.80154,3.32845,5.78233,5.46889,10.171,5.46889h15.67977a5.99522,5.99522,0,0,0,5.00631-2.45174l.55764-.83609h0a4.657,4.657,0,0,1-3.993-2.03361l-40.5249-66.0414Z"/><path class="cls-14" d="M147.04488,130.86518h0a7.5252,7.5252,0,0,0-9.65951,1.2765L92.66622,188.02315c-3.58163,4.47567-9.61738,7.16479-16.08148,7.16479H70.29226l-5.121-12.26979s41.57336-53.01869,52.28868-61.03887c0,0,10.67093-7.99906,21.19225-1.95119a15.42121,15.42121,0,0,1,6.17915,6.476Z"/><path class="cls-14" d="M16.53307,149.91895s7.48563-7.78225,21.99129-8.99286c0,0,6.88952,1.95225,20.615,22.40805s22.83606,29.784,33.5269,24.689l-.88508,1.22228c-2.91687,4.02816-8.15748,6.49121-13.81118,6.49121H72.05719c-6.51,0-12.62116-2.60319-16.42276-6.99859C44.95185,176.38677,23.09528,151.83637,16.53307,149.91895Z"/><path class="cls-16" d="M240.49768,80.47511c-.01572,0-.03144-.00067-.04745-.00225a.36712.36712,0,0,1-.36682-.38312l.30257-2.22247a.4044.4044,0,0,1,.46062-.3051.36713.36713,0,0,1,.36683.38312l-.30257,2.22247A.39672.39672,0,0,1,240.49768,80.47511Z"/><path class="cls-16" d="M202.16706,108.53a.47142.47142,0,0,1-.25377-.07194.30922.30922,0,0,1-.07591-.48572l37.91636-40.97669a1.746,1.746,0,0,1,1.8444-.41671,1.28014,1.28014,0,0,1,.97765,1.366l-.66912,4.91173a.40383.40383,0,0,1-.46063.30509.36712.36712,0,0,1-.36682-.38312l.66912-4.91173a.60468.60468,0,0,0-.46226-.646.822.822,0,0,0-.87245.19731L202.49728,108.395A.45026.45026,0,0,1,202.16706,108.53Z"/><path class="cls-16" d="M116.14958,151.48749a.475.475,0,0,1-.23261-.05931.31205.31205,0,0,1-.11225-.48076l19.60954-24.17552a3.6876,3.6876,0,0,1,3.11784-1.2551,3.46379,3.46379,0,0,1,2.85377,1.63191.32354.32354,0,0,1-.19819.46114.455.455,0,0,1-.55443-.16483,2.62631,2.62631,0,0,0-2.16432-1.23729,2.78495,2.78495,0,0,0-2.3644.95159L116.495,151.33483A.44408.44408,0,0,1,116.14958,151.48749Z"/><path class="cls-16" d="M111.054,157.77a.47505.47505,0,0,1-.23262-.05931.31205.31205,0,0,1-.11224-.48076l1.25743-1.55027a.47058.47058,0,0,1,.578-.09335.312.312,0,0,1,.11224.48075l-1.25743,1.55028A.4441.4441,0,0,1,111.054,157.77Z"/><path class="cls-17" d="M98.60488,77.66194l-5.79843,7.41941c2.69738,4.37074,5.69346,6.78362,8.69087,7.93064a12.73292,12.73292,0,0,1,3.85117-6.32593C100.00144,84.1564,98.60488,77.66194,98.60488,77.66194Z"/><path class="cls-18" d="M118.52695,85.35413c-5.93651,2.92239-10.17913,2.75094-13.17846,1.33193a12.73292,12.73292,0,0,0-3.85117,6.32593c9.52863,3.64644,19.07034-5.5315,19.07034-5.5315Z"/><path class="cls-19" d="M118.85,86.62507a2.97933,2.97933,0,0,1,.70212-4.1082s.74313-.70506,1.5591.3308c0,0,2.47942-1.87211,3.15744-1.118s2.47531,2.62137.72,4.75118C123.21353,88.63468,119.6329,87.67473,118.85,86.62507Z"/><path class="cls-20" d="M121.287,85.32122a1.60456,1.60456,0,0,1-.70843-.14567.99191.99191,0,0,1-.55877-.78518.24369.24369,0,0,1,.24048-.25819.27352.27352,0,0,1,.31042.2.54622.54622,0,0,0,.28983.44558,1.42172,1.42172,0,0,0,.81172.04216l-.56582-1.49232a.22634.22634,0,0,1,.18137-.28976.29288.29288,0,0,1,.34839.15086l.65068,1.71624a.223.223,0,0,1-.16321.28435A2.92541,2.92541,0,0,1,121.287,85.32122Z"/><path class="cls-21" d="M34.50608,135.18123a1.19265,1.19265,0,0,0-.65668,1.33538c.484,2.09781,2.07488,7.63912,5.93932,10.91957a.663.663,0,0,0,.85088.00206,18.43618,18.43618,0,0,1-3.61019-4.75867C34.84953,138.89652,34.44577,136.56329,34.50608,135.18123Z"/><path class="cls-22" d="M39.49608,135.10284a6.37842,6.37842,0,0,0-4.97264.06829l-.01736.01011c-.06031,1.38206.34344,3.71529,2.52334,7.49833a18.43618,18.43618,0,0,0,3.61019,4.75867.54969.54969,0,0,0,.16118-.23575C41.52667,145.105,43.05941,139.27744,39.49608,135.10284Z"/><path class="cls-23" d="M43.09485,135.23336l-2.25793,1.8018a1.3705,1.3705,0,0,1-1.47293.11547,2.75785,2.75785,0,0,1-1.14807-1.1764.86626.86626,0,0,1,.21771-1.04818l2.2542-2.06238a1.33413,1.33413,0,0,1,1.90236.16181l.7049.99154A.87.87,0,0,1,43.09485,135.23336Z"/><path class="cls-24" d="M114.99987,125.87182a1.77977,1.77977,0,0,0,1.72006.18685c2.31487-.92513,8.34963-3.6202,11.17551-7.56582a.44318.44318,0,0,0-.215-.68474,20.18458,20.18458,0,0,1-4.60915,4.11889C119.23081,124.64643,116.62178,125.56723,114.99987,125.87182Z"/><path class="cls-25" d="M113.63379,121.8793a3.94549,3.94549,0,0,0,1.34989,3.98115l.01619.01137c1.62191-.30459,4.23094-1.22539,8.07144-3.94483a20.18458,20.18458,0,0,0,4.60915-4.11889.78622.78622,0,0,0-.3152-.06936C124.74166,117.69092,117.576,117.94735,113.63379,121.8793Z"/><path class="cls-26" d="M113.35146,118.72012l2.35944,1.70951a.874.874,0,0,1,.26988,1.20987,2.90324,2.90324,0,0,1-1.30622,1.05615,1.393,1.393,0,0,1-1.27465-.0867l-2.67111-1.68315a.89657.89657,0,0,1,.02384-1.5904l1.12438-.67248A1.37991,1.37991,0,0,1,113.35146,118.72012Z"/><path class="cls-27" d="M66.01337,101.41764s-4.60388,13.04492-7.58034,18.77848a33.4394,33.4394,0,0,0-8.42354,2.2252c-3.22043,1.565-10.15707,10.23913-10.15707,10.23913s1.81154,2.86031,3.99728,3.29911l19.74675-11.37991,15.7597-15.24339-.74806-7.0702Z"/><path class="cls-28" d="M66.297,100.35344l-1.34719,3.57232s1.23217,9.36538,15.42779,7.78611S96.35741,108.205,96.35741,108.205s-1.23232,5.98139,14.29,13.17307c0,0,2.35943-1.48136,2.87872-3.16361l-10.8777-14.91181c-1.51306-1.956-2.91619-2.47118-5.679-2.1118-6.109.79461-17.54774,1.83036-19.279,1.58447Z"/><path class="cls-29" d="M77.384,73.79c-4.13695.175-10.67611,1.81059-14.90018,5.045a44.75833,44.75833,0,0,1,4.78523,5.04482,14.15545,14.15545,0,0,1,5.93178-2.45873,130.20377,130.20377,0,0,1-8.42353,20.51741.71643.71643,0,0,0,.5252,1.00789c2.59184.75122,10.23522,2.54036,16.36575-.341L95.25978,86.41867a12.64088,12.64088,0,0,0,2.80841-5.8367l.53669-2.92S86.39813,73.40878,77.384,73.79Z"/><path class="cls-30" d="M69.97148,98.28479c-.59076-1.08482-2.61306-2.09849-3.5783-2.534-.83965-1.43966-4.19137-7.91426.87589-11.871A44.75833,44.75833,0,0,0,62.48385,78.835c-4.87368,3.73181-6.65781,9.59409,1.88866,17.80218-.4665,2.02169,1.05562,4.37578,1.87864,4.70576C66.63036,101.49493,70.75651,99.72659,69.97148,98.28479Z"/><path class="cls-31" d="M73.98682,81.16809l3.779-.67829Z"/><path class="cls-32" d="M86.56466,69.49067,83.01378,75.2714a.83272.83272,0,0,0,.16594,1.07354c.85982.79651,2.89055,2.09025,6.423,1.16309a.95426.95426,0,0,0,.72891-.723l.92471-5.25Z"/><path class="cls-33" d="M92.48436,62.77819s2.08268,3.97918,2.22257,6.06774.681,3.44377-2.22257,3.86434a6.55571,6.55571,0,0,1-6.67451-2.86286s-2.07618-3.20574-1.61042-4.51856S92.48436,62.77819,92.48436,62.77819Z"/><path class="cls-34" d="M86.802,68.3516l.16531-.06061a.31074.31074,0,0,0,.19472-.45533c-.40944-.658-1.20763-2.16576-.1765-2.51749,1.32886-.45327,6.59266-1.34608,7.72835-2.89956a2.66017,2.66017,0,0,0-1.329-3.96843.22146.22146,0,0,0-.26186.071l-.12112.19064a.21361.21361,0,0,1-.36395-.03107h0a.213.213,0,0,0-.35528-.04235c-.3491.4648-1.29154,1.21823-3.812,1.60511-3.582.54987-5.95015,1.75549-6.00908,3.81418a.20181.20181,0,0,1-.30536.13544,1.16872,1.16872,0,0,0-1.25337.19862c-.98368.68794-.58115,2.47259,1.57532,3.94059a.148.148,0,0,1-.00931.26282c-.391.21168-.97377.71532.53637,1.38673a5.97185,5.97185,0,0,0,3.17746.57583.16753.16753,0,0,0,.15937-.1973L85.86265,68.551c-.02713-.1024.06662-.19939.19269-.19939Z"/><path class="cls-35" d="M86.89218,68.73339s-.79453-2.54183-2.16471-1.82915.711,2.848,1.81262,2.94317Z"/><polygon class="cls-14" points="123.444 86.692 120.189 86.692 115.072 74.173 129.295 73.455 123.444 86.692"/><path class="cls-14" d="M106.4136,50.91409c-.01607,1.05664-.01607,21.74506,12.611,25.10468S137.355,61.87386,136.90245,49.40729Z"/><rect class="cls-14" x="111.72249" y="88.59169" width="20.18715" height="2.0385"/><polygon class="cls-14" points="131.91 88.592 111.722 88.592 116.832 86.312 126.801 86.312 131.91 88.592"/><path class="cls-14" d="M104.95028,47.97864c-1.10839.05609-2.01517.73859-2.01517,1.51667v1.59125c0,.778.90734,1.374,2.01627,1.32444l34.60609-1.54866c1.109-.0496,2.01635-.72682,2.01635-1.50486V47.53994c0-.77808-.90686-1.36879-2.0152-1.3127Z"/><path class="cls-14" d="M127.96646,77.66308a1.51252,1.51252,0,0,1-1.596-.99843c-.10076-.61772.53253-1.17581,1.41455-1.24672.168-.014,11.78083-1.03389,12.88183-6.32046a2.03787,2.03787,0,0,0-.9873-2.54162,4.778,4.778,0,0,0-3.62183.29651c-.633.32417-1.32576.892-1.03116,1.75635.20625.605-.327,1.21251-1.19115,1.35692a1.72761,1.72761,0,0,1-1.93787-.834c-.53414-1.567.311-3.09867,2.261-4.09728a9.11909,9.11909,0,0,1,7.18075-.40806,3.95534,3.95534,0,0,1,2.51093,4.79626c-.61562,2.95583-3.58322,5.32363-8.58179,6.84739a37.48773,37.48773,0,0,1-7.11716,1.38581Q128.058,77.66315,127.96646,77.66308Z"/><path class="cls-14" d="M115.922,77.66308a1.51256,1.51256,0,0,0,1.596-.99843c.10077-.61772-.53252-1.17581-1.41455-1.24672-.168-.014-11.78087-1.03389-12.88186-6.32046a2.03791,2.03791,0,0,1,.9873-2.54162,4.778,4.778,0,0,1,3.62186.29651c.633.32417,1.32573.892,1.03116,1.75635-.20625.605.32694,1.21251,1.19112,1.35692a1.72761,1.72761,0,0,0,1.93787-.834c.53419-1.567-.311-3.09867-2.261-4.09728a9.11912,9.11912,0,0,0-7.18076-.40806,3.95532,3.95532,0,0,0-2.51093,4.79626c.61559,2.95583,3.58318,5.32363,8.58176,6.84739a37.48749,37.48749,0,0,0,7.11721,1.38581Q115.83041,77.66315,115.922,77.66308Z"/><path class="cls-36" d="M130.053,49.30135a.26107.26107,0,0,1-.27708-.2185.25169.25169,0,0,1,.26244-.24308l3.09045-.13846a.266.266,0,0,1,.29226.21828.25171.25171,0,0,1-.26244.24308l-3.09045.13845Z"/><path class="cls-36" d="M106.41219,50.35915a.26107.26107,0,0,1-.27708-.21851.25171.25171,0,0,1,.26244-.24308l18.46326-.82621a.26449.26449,0,0,1,.29226.21828.25169.25169,0,0,1-.26244.24308l-18.46326.82622Z"/><path class="cls-36" d="M120.7084,73.68568l-.032-.00158c-3.34909-.32043-6.02609-2.58733-7.95589-6.73779a35.94461,35.94461,0,0,1-2.69381-10.19169.24544.24544,0,0,1,.247-.25368.27157.27157,0,0,1,.305.20542c.60025,4.73178,2.792,15.814,10.16115,16.51907a.24444.24444,0,0,1,.244.25571A.26469.26469,0,0,1,120.7084,73.68568Z"/><path class="cls-36" d="M110.079,54.798a.26155.26155,0,0,1-.27681-.216c-.04907-.63138-.06263-.99466-.06317-1.00977a.25451.25451,0,0,1,.26921-.2379.26065.26065,0,0,1,.286.22392c0,.00361.01355.37139.06209.994a.25055.25055,0,0,1-.25919.24534Z"/><path class="cls-37" d="M125.73614,83.2582s-1.29628-3.06923-3.48168-1.373-1.13594,3.98139,1.18915,4.80723S126.89266,85.71392,125.73614,83.2582Z"/><path class="cls-2" d="M183.16084,195.60292c11.24722,1.7975,44.46239,2.92432,56.70583-42.923.34764-1.3018-1.60036-2.14556-2.67583-1.15656-5.03761,4.6325-13.99834,12.50813-21.61176,14.93158-23.58773,7.50837-32.12671,19.58689-34.94421,25.24407C179.80047,193.3745,181.01957,195.2607,183.16084,195.60292Z"/><path class="cls-38" d="M182.073,194.39306a.57685.57685,0,0,1-.55684-.348.47673.47673,0,0,1,.39507-.59827,93.25356,93.25356,0,0,0,35.675-17.30208,70.55912,70.55912,0,0,0,11.8671-11.55782.65152.65152,0,0,1,.79864-.15623.43809.43809,0,0,1,.18812.664,71.5263,71.5263,0,0,1-12.026,11.72724,94.48684,94.48684,0,0,1-36.17868,17.55185A.69753.69753,0,0,1,182.073,194.39306Z"/><path class="cls-4" d="M208.82061,117.47338c1.27955,8.56012,7.67942,61.3444-26.0737,78.18756a1.64869,1.64869,0,0,1-2.41916-1.04637c-.54772-6.29136-.88963-26.28387,12.9931-49.87946,10.01643-17.02423,13.6879-24.69882,14.84533-27.32421A.3579.3579,0,0,1,208.82061,117.47338Z"/><path class="cls-2" d="M180.32725,195.09713a.67231.67231,0,0,1-.27665-.05867.44415.44415,0,0,1-.23245-.65459c16.77268-25.6468,24.16837-56.93066,24.18593-58.38239a.486.486,0,0,1,.4006-.53277.61008.61008,0,0,1,.727.31646c.41107,1.09263-7.35192,33.15385-24.29416,59.06008A.60725.60725,0,0,1,180.32725,195.09713Zm23.69653-59.025.00042.00142Zm-.0197-.08577Z"/></g></svg>